<?xml version="1.0" encoding="UTF-8"?>
<svg version="1.1" xmlns="http://www.w3.org/2000/svg" width="500" height="500">
<path d="M0 0 C165 0 330 0 500 0 C500 165 500 330 500 500 C335 500 170 500 0 500 C0 335 0 170 0 0 Z " fill="#161513" transform="translate(0,0)"/>
<path d="M0 0 C0.66 0 1.32 0 2 0 C2.5168335 1.16418457 3.03366699 2.32836914 3.56616211 3.52783203 C13.26468949 25.37180568 22.96856367 47.21329077 32.74243164 69.02368164 C33.42856036 70.5548448 34.11467689 72.08601342 34.80078125 73.6171875 C35.13920547 74.37239182 35.4776297 75.12759613 35.8263092 75.90568542 C38.06923769 80.91371246 40.30345295 85.92555714 42.53285217 90.93962097 C44.10060988 94.4651832 45.67067745 97.98971465 47.24087524 101.51419067 C47.98923438 103.19570812 48.73647137 104.87772547 49.48251343 106.56027222 C50.51409367 108.88653384 51.5495976 111.21101197 52.5859375 113.53515625 C52.88827805 114.21977936 53.19061859 114.90440247 53.50212097 115.60977173 C54.3106671 117.41747865 55.15405548 119.20948917 56 121 C56.42104004 121.8964624 56.84208008 122.7929248 57.27587891 123.71655273 C59.01529609 126.02025833 60.13242154 126.78744577 62.60775757 128.14271545 C64.28691757 129.0620713 64.28691757 129.0620713 66 130 C65.93876734 120.04661839 65.86164554 110.09349852 65.76428509 100.14040089 C65.71957393 95.51866718 65.68031945 90.89702178 65.65356445 86.27514648 C65.6275389 81.81404792 65.58714183 77.35328902 65.53681374 72.89240074 C65.52013995 71.19122228 65.50862885 69.48998506 65.50238609 67.78873634 C65.49275043 65.40412486 65.46469866 63.02038334 65.43237305 60.63598633 C65.43380814 59.93395584 65.43524323 59.23192535 65.4367218 58.50862122 C65.31710638 52.26210193 63.32916148 49.32916148 59 45 C67.58 45 76.16 45 85 45 C83.02 47.97 81.04 50.94 79 54 C78.14544192 57.03436363 78.14544192 57.03436363 78.26742554 59.943573 C78.25654404 61.03388824 78.24566254 62.12420349 78.23445129 63.24755859 C78.25295639 64.41351563 78.27146149 65.57947266 78.29052734 66.78076172 C78.28632278 68.03237091 78.28211823 69.2839801 78.27778625 70.57351685 C78.27273827 73.2802757 78.27836993 75.98442122 78.30268478 78.6908226 C78.34078698 82.97939698 78.33487701 87.267252 78.32315063 91.55593872 C78.30635423 99.8897728 78.33432682 108.22316673 78.36656952 116.55693054 C78.40512001 127.15688568 78.42107418 137.75676582 78.40136492 148.3567754 C78.39487624 152.609879 78.4089392 156.862248 78.43981528 161.11523795 C78.45893487 164.39696514 78.45251369 167.67867704 78.45068359 170.96044922 C78.47236855 172.70331207 78.47236855 172.70331207 78.49449158 174.48138428 C78.44686366 184.43932555 76.19837659 194.66013198 69 202 C58.97912159 210.69214315 47.89661271 213.98690486 34.765625 213.37109375 C24.6459748 212.37382532 17.66863795 207.57746117 11 200 C7.84756905 195.22530683 5.38537738 190.84851836 6 185 C8.49884415 181.69270628 9.94370415 180.19401352 14.0625 179.4375 C17 180 17 180 19.375 181.5625 C21.62340519 184.93510779 21.56783945 187.02512383 21 191 C18.94355125 193.8942612 17.6751021 194.81588125 14.25 195.75 C13.5075 195.8325 12.765 195.915 12 196 C15.53540143 202.45595044 20.99498584 206.66499528 28 209 C38.06708145 209.69703969 47.82023012 210.08008162 56.01953125 203.33984375 C64.31262898 194.83723618 65.59716848 184.28286023 65.609375 172.89453125 C65.62591125 171.6893132 65.64244751 170.48409515 65.65948486 169.24235535 C65.70766443 165.43235017 65.72926989 161.62274327 65.75 157.8125 C65.77818465 155.21287091 65.80811553 152.61326013 65.83984375 150.01367188 C65.91666882 143.67560327 65.95747226 137.33876036 66 131 C56.76 131 47.52 131 38 131 C39.65 129.35 41.3 127.7 43 126 C43.36370129 119.08967549 39.35332887 112.770334 36.4375 106.6875 C35.41215052 104.5262615 34.38984918 102.36357334 33.37109375 100.19921875 C32.91661865 99.24877686 32.46214355 98.29833496 31.99389648 97.3190918 C31 95 31 95 31 93 C8.23 93 -14.54 93 -38 93 C-38.99 95.97 -39.98 98.94 -41 102 C-41.64392254 103.51628183 -42.31609595 105.02168922 -43.04296875 106.5 C-43.39423828 107.2425 -43.74550781 107.985 -44.10742188 108.75 C-44.82968309 110.25460203 -45.56154135 111.75463334 -46.30273438 113.25 C-48.88766853 118.77475724 -49.36886084 122.90472576 -49 129 C-47.68 129.66 -46.36 130.32 -45 131 C-51.6 131 -58.2 131 -65 131 C-63.02 130.01 -63.02 130.01 -61 129 C-60.29875 128.46375 -59.5975 127.9275 -58.875 127.375 C-57 126 -57 126 -55 126 C-54.73316406 125.31776367 -54.46632812 124.63552734 -54.19140625 123.93261719 C-52.84369633 120.61526236 -51.39952431 117.34608582 -49.9375 114.078125 C-49.30872696 112.66773778 -48.679985 111.25733671 -48.05126953 109.84692383 C-47.55170746 108.72756943 -47.55170746 108.72756943 -47.04205322 107.58560181 C-38.7880109 89.0854372 -30.63428746 70.54191117 -22.50312805 51.98748779 C-19.63931476 45.45398124 -16.76796004 38.92381378 -13.89453125 32.39453125 C-12.64612848 29.55638581 -11.39784116 26.71818964 -10.14959717 23.87997437 C-9.34620838 22.05395285 -8.54238053 20.22812444 -7.73809814 18.40249634 C-6.62497651 15.8756292 -5.5134832 13.34805175 -4.40234375 10.8203125 C-4.07095901 10.06921707 -3.73957428 9.31812164 -3.39814758 8.54426575 C-2.15713558 5.71774885 -0.97681543 2.93044629 0 0 Z " fill="#F5F5F5" transform="translate(205,162)"/>
<path d="M0 0 C2.79234508 3.37456751 4.55477223 7.06165839 6.3359375 11.02734375 C6.80997765 12.06724709 6.80997765 12.06724709 7.29359436 13.12815857 C8.32567093 15.39573181 9.3505784 17.66645939 10.375 19.9375 C11.08702649 21.50810879 11.79935037 23.0785828 12.51196289 24.64892578 C13.96661119 27.85718252 15.41788668 31.06693593 16.86669922 34.27783203 C18.56018341 38.02988872 20.26258944 41.77778524 21.96948242 45.52375793 C23.17910157 48.18055234 24.3840011 50.83946576 25.58746338 53.49905396 C26.15060987 54.74186209 26.71532861 55.98395909 27.28167725 57.22531128 C28.06652895 58.94739576 28.84398441 60.67284536 29.62109375 62.3984375 C30.0586499 63.36442871 30.49620605 64.33041992 30.94702148 65.32568359 C32 68 32 68 33 73 C11.55 73 -9.9 73 -32 73 C-31.28521358 69.42606792 -30.76364165 67.13216228 -29.31689453 63.97363281 C-28.97172791 63.21303055 -28.62656128 62.45242828 -28.27093506 61.66877747 C-27.89535461 60.85511215 -27.51977417 60.04144684 -27.1328125 59.203125 C-26.74176331 58.34446335 -26.35071411 57.4858017 -25.94781494 56.60112 C-24.67817266 53.81527417 -23.40157107 51.03267662 -22.125 48.25 C-20.38825125 44.44509078 -18.65503865 40.63857459 -16.921875 36.83203125 C-16.49526581 35.89633804 -16.06865662 34.96064484 -15.62911987 33.99659729 C-11.67685445 25.31769344 -7.82741671 16.59692317 -4.03564453 7.84667969 C-3.63974121 6.93692383 -3.24383789 6.02716797 -2.8359375 5.08984375 C-2.50126465 4.31503662 -2.1665918 3.54022949 -1.82177734 2.74194336 C-1 1 -1 1 0 0 Z " fill="#181715" transform="translate(201,180)"/>
<path d="M0 0 C8.58 0 17.16 0 26 0 C24.02 2.97 22.04 5.94 20 9 C19.14544192 12.03436363 19.14544192 12.03436363 19.26742554 14.943573 C19.25654404 16.03388824 19.24566254 17.12420349 19.23445129 18.24755859 C19.25295639 19.41351563 19.27146149 20.57947266 19.29052734 21.78076172 C19.28632278 23.03237091 19.28211823 24.2839801 19.27778625 25.57351685 C19.27273827 28.2802757 19.27836993 30.98442122 19.30268478 33.6908226 C19.34078698 37.97939698 19.33487701 42.267252 19.32315063 46.55593872 C19.30635423 54.8897728 19.33432682 63.22316673 19.36656952 71.55693054 C19.40512001 82.15688568 19.42107418 92.75676582 19.40136492 103.3567754 C19.39487624 107.609879 19.4089392 111.862248 19.43981528 116.11523795 C19.45893487 119.39696514 19.45251369 122.67867704 19.45068359 125.96044922 C19.46514023 127.12235779 19.47959686 128.28426636 19.49449158 129.48138428 C19.44686366 139.43932555 17.19837659 149.66013198 10 157 C-0.02087841 165.69214315 -11.10338729 168.98690486 -24.234375 168.37109375 C-34.3540252 167.37382532 -41.33136205 162.57746117 -48 155 C-51.15243095 150.22530683 -53.61462262 145.84851836 -53 140 C-50.50115585 136.69270628 -49.05629585 135.19401352 -44.9375 134.4375 C-42 135 -42 135 -39.625 136.5625 C-37.37659481 139.93510779 -37.43216055 142.02512383 -38 146 C-40.05644875 148.8942612 -41.3248979 149.81588125 -44.75 150.75 C-45.4925 150.8325 -46.235 150.915 -47 151 C-43.46459857 157.45595044 -38.00501416 161.66499528 -31 164 C-20.93291855 164.69703969 -11.17976988 165.08008162 -2.98046875 158.33984375 C1.89657833 153.33958706 4.0858754 147.62739915 6 141 C6.17694995 140.39558453 6.3538999 139.79116905 6.53621197 139.16843796 C7.07312543 136.6581025 7.13517913 134.35721751 7.14717102 131.78936768 C7.15432632 130.73524689 7.16148163 129.6811261 7.16885376 128.59506226 C7.17154266 127.44381866 7.17423157 126.29257507 7.17700195 125.10644531 C7.18357315 123.88976166 7.19014435 122.673078 7.19691467 121.41952515 C7.21664187 117.38905592 7.22831252 113.35862644 7.23828125 109.328125 C7.24233067 107.93777192 7.24644764 106.54741903 7.25063133 105.15706635 C7.26967232 98.62382665 7.28390555 92.09059818 7.2922433 85.55733609 C7.30201154 78.02857603 7.32832453 70.5001103 7.36874419 62.97145391 C7.39895305 57.14369312 7.41371668 51.3160165 7.41702431 45.48817897 C7.41936939 42.01140815 7.4282584 38.53495216 7.45348549 35.05826569 C7.481203 31.17579335 7.47692047 27.29370515 7.4699707 23.41113281 C7.48918579 21.69641281 7.48918579 21.69641281 7.50878906 19.947052 C7.45377424 11.50604609 6.02967513 6.02967513 0 0 Z " fill="#FDFDFD" transform="translate(264,207)"/>
<path d="M0 0 C2.9375 0.5625 2.9375 0.5625 5.3125 2.125 C7.56090519 5.49760779 7.50533945 7.58762383 6.9375 11.5625 C4.88105125 14.4567612 3.6126021 15.37838125 0.1875 16.3125 C-0.92625 16.43625 -0.92625 16.43625 -2.0625 16.5625 C1.47290143 23.01845044 6.93248584 27.22749528 13.9375 29.5625 C16.33004576 29.78810676 18.72678123 29.97098595 21.125 30.125 C23.03345703 30.25068359 23.03345703 30.25068359 24.98046875 30.37890625 C25.95628906 30.43949219 26.93210938 30.50007813 27.9375 30.5625 C27.9375 30.8925 27.9375 31.2225 27.9375 31.5625 C26.865 31.706875 25.7925 31.85125 24.6875 32 C21.20297332 32.42076559 21.20297332 32.42076559 18.9921875 33.18359375 C14.63266424 33.98753625 10.68753167 31.60114383 6.9375 29.5625 C-0.02750911 24.60333288 -5.45719294 18.84463402 -8.0625 10.5625 C-8.42829919 6.72732412 -8.34089711 5.93096677 -5.9375 2.75 C-3.0625 0.5625 -3.0625 0.5625 0 0 Z " fill="#ECEBEB" transform="translate(219.0625,341.4375)"/>
<path d="M0 0 C0.66 0.33 1.32 0.66 2 1 C1.41140194 6.3826094 -0.437851 10.67487647 -2.68359375 15.52734375 C-3.24077087 16.75469238 -3.24077087 16.75469238 -3.8092041 18.00683594 C-5.01207843 20.65343487 -6.22453995 23.29551027 -7.4375 25.9375 C-9.08628861 29.55074044 -10.7308875 33.16587985 -12.375 36.78125 C-12.77847153 37.66675034 -13.18194305 38.55225067 -13.59764099 39.46458435 C-17.24947703 47.49931582 -20.75173359 55.59425898 -24.09350586 63.76342773 C-24.44292236 64.59302002 -24.79233887 65.4226123 -25.15234375 66.27734375 C-25.5853479 67.33296509 -25.5853479 67.33296509 -26.02709961 68.40991211 C-27 70 -27 70 -30 71 C-29.32600155 65.91513465 -27.18142001 61.54579675 -25.09765625 56.9140625 C-24.70382751 56.02764572 -24.30999878 55.14122894 -23.90423584 54.22795105 C-22.62820164 51.35825272 -21.34533854 48.49166211 -20.0625 45.625 C-18.75714892 42.6932719 -17.45354527 39.76077065 -16.14994812 36.82826233 C-15.29192435 34.89857875 -14.43329521 32.96916422 -13.5740509 31.0400238 C-10.28192293 23.64719263 -7.0287743 16.23864432 -3.8125 8.8125 C-3.40974854 7.88324707 -3.00699707 6.95399414 -2.59204102 5.99658203 C-1.72680605 3.9982497 -0.86315355 1.99923225 0 0 Z " fill="#E4E4E3" transform="translate(196,183)"/>
<path d="M0 0 C0.99 0.33 1.98 0.66 3 1 C2.66677734 1.71019287 2.33355469 2.42038574 1.99023438 3.15209961 C0.47570478 6.40595523 -1.01222105 9.67133171 -2.5 12.9375 C-3.02464844 14.05447266 -3.54929688 15.17144531 -4.08984375 16.32226562 C-7.06465858 22.90935561 -8.67527929 27.76376851 -8 35 C-6.68 35.66 -5.36 36.32 -4 37 C-10.6 37 -17.2 37 -24 37 C-22.68 36.34 -21.36 35.68 -20 35 C-19.29875 34.46375 -18.5975 33.9275 -17.875 33.375 C-16 32 -16 32 -14 32 C-13.72816895 31.30688721 -13.45633789 30.61377441 -13.17626953 29.8996582 C-11.90705149 26.77086976 -10.55369542 23.68967802 -9.1796875 20.60546875 C-8.64472656 19.40341797 -8.10976562 18.20136719 -7.55859375 16.96289062 C-6.99741619 15.70441801 -6.43621802 14.44595458 -5.875 13.1875 C-5.30590366 11.90954347 -4.73689237 10.63154906 -4.16796875 9.35351562 C-2.77948186 6.23530353 -1.39012908 3.11748025 0 0 Z " fill="#E0E0E0" transform="translate(164,256)"/>
<path d="M0 0 C1.20628008 2.33214148 2.1654738 4.49642139 3 7 C4.32 7.66 5.64 8.32 7 9 C0.4 9 -6.2 9 -13 9 C-11.68 8.34 -10.36 7.68 -9 7 C-8.29875 6.46375 -7.5975 5.9275 -6.875 5.375 C-5 4 -5 4 -3 4 C-2.67 3.01 -2.34 2.02 -2 1 C-1.34 0.67 -0.68 0.34 0 0 Z " fill="#E8E7E7" transform="translate(153,284)"/>
<path d="M0 0 C0.99 0 1.98 0 3 0 C1.44991147 4.89704585 -0.41637991 9.59655312 -2.4375 14.3125 C-2.73720703 15.04017578 -3.03691406 15.76785156 -3.34570312 16.51757812 C-4.14719005 18.38307806 -5.06628864 20.19704288 -6 22 C-6.99 22.33 -7.98 22.66 -9 23 C-8.33673121 17.8307147 -6.08075343 13.37748635 -3.9375 8.6875 C-3.37192383 7.43356445 -3.37192383 7.43356445 -2.79492188 6.15429688 C-1.86788193 4.10072738 -0.93613122 2.04943713 0 0 Z " fill="#E1E1E1" transform="translate(175,231)"/>
<path d="M0 0 C0.66 0 1.32 0 2 0 C1.54908657 2.63032833 1.01537696 4.96251867 0 7.4375 C-1.10907282 10.27949909 -1.57943236 12.98593192 -2 16 C-2.99 15.01 -3.98 14.02 -5 13 C-4.54554036 11.58208592 -4.08625056 10.16571954 -3.625 8.75 C-3.24214844 7.56664062 -3.24214844 7.56664062 -2.8515625 6.359375 C-2.04826333 4.13372042 -1.10288338 2.09068328 0 0 Z " fill="#DADAD9" transform="translate(157,272)"/>
<path d="M0 0 C1 3 1 3 0.25 5.625 C-1 8 -1 8 -4 9 C-3.46930939 5.17902761 -2.50298434 2.93828597 0 0 Z " fill="#E6E6E5" transform="translate(170,245)"/>
<path d="M0 0 C0.6875 1.75 0.6875 1.75 1 4 C-0.4375 6.25 -0.4375 6.25 -2 8 C-2.6875 6.25 -2.6875 6.25 -3 4 C-1.5625 1.75 -1.5625 1.75 0 0 Z " fill="#EEEEEE" transform="translate(192,195)"/>
<path d="M0 0 C0.99 0 1.98 0 3 0 C2.34 1.98 1.68 3.96 1 6 C0.01 6 -0.98 6 -2 6 C-1.34 4.02 -0.68 2.04 0 0 Z " fill="#D5D5D5" transform="translate(171,240)"/>
</svg>
