<?xml version="1.0" encoding="UTF-8"?>
<svg version="1.1" xmlns="http://www.w3.org/2000/svg" width="500" height="500">
<path d="M0 0 C165 0 330 0 500 0 C500 165 500 330 500 500 C335 500 170 500 0 500 C0 335 0 170 0 0 Z " fill="#FEFEFE" transform="translate(0,0)"/>
<path d="M0 0 C3.24535319 3.78192163 4.99060596 8.13214771 6.96484375 12.65234375 C7.35069641 13.52441467 7.73654907 14.3964856 8.13409424 15.29498291 C9.40660435 18.17376901 10.67199176 21.05562991 11.9375 23.9375 C12.82082945 25.93879681 13.70470759 27.93985153 14.58911133 29.94067383 C16.44240924 34.13463801 18.29328537 38.32965896 20.14257812 42.52539062 C24.36019906 52.08894549 28.60766341 61.63923901 32.85476685 71.18972778 C34.17549768 74.16050268 35.49500799 77.13181697 36.81420898 80.10327148 C37.61961264 81.91651113 38.42503172 83.72974393 39.23046875 85.54296875 C39.5993219 86.3741925 39.96817505 87.20541626 40.34820557 88.06182861 C42.11411426 92.05893415 42.11411426 92.05893415 44 96 C44.08667255 98.62627133 44.11560135 101.22562483 44.09765625 103.8515625 C44.0962413 104.62559418 44.09482635 105.39962585 44.09336853 106.19711304 C44.08776403 108.67311442 44.07521083 111.14902588 44.0625 113.625 C44.05748558 115.30208203 44.05292257 116.97916547 44.04882812 118.65625 C44.03779315 122.77086806 44.02052554 126.88541878 44 131 C41.69 131 39.38 131 37 131 C37.845625 130.319375 38.69125 129.63875 39.5625 128.9375 C40.366875 127.968125 41.17125 126.99875 42 126 C40.83085841 115.57229393 40.83085841 115.57229393 30 94 C7.23 93.67 -15.54 93.34 -39 93 C-39.33 94.65 -39.66 96.3 -40 98 C-40.71106434 99.70689101 -41.4766644 101.39172919 -42.28515625 103.0546875 C-42.95708008 104.47201172 -42.95708008 104.47201172 -43.64257812 105.91796875 C-44.58688084 107.88450838 -45.5373808 109.84808454 -46.49414062 111.80859375 C-49.98902902 119.07148173 -49.98902902 119.07148173 -50 127 C-48.68 128.32 -47.36 129.64 -46 131 C-51.94 131 -57.88 131 -64 131 C-62.68 130.01 -61.36 129.02 -60 128 C-51.20299263 120.82349398 -47.58715451 107.97325491 -43.25 97.8125 C-42.1062484 95.15014414 -40.95944318 92.48910724 -39.8125 89.828125 C-39.35898163 88.77486778 -39.35898163 88.77486778 -38.89630127 87.70033264 C-35.0599427 78.80103528 -31.15249826 69.93293683 -27.25 61.0625 C-22.51508015 50.29902958 -17.78975041 39.53171765 -13.10546875 28.74609375 C-12.71060272 27.83747086 -12.31573669 26.92884796 -11.90890503 25.99269104 C-10.00891586 21.62017496 -8.11138161 17.24662114 -6.21777344 12.87133789 C-5.53981073 11.31001639 -4.86175607 9.74873481 -4.18359375 8.1875 C-3.87407272 7.46980942 -3.5645517 6.75211884 -3.24565125 6.01268005 C-1.11352704 1.11352704 -1.11352704 1.11352704 0 0 Z " fill="#FCFCFC" transform="translate(206,162)"/>
<path d="M0 0 C8.58 0 17.16 0 26 0 C24.35 1.98 22.7 3.96 21 6 C19.79402386 9.06403878 19.87311104 12.0284841 19.86869812 15.30433655 C19.86468994 16.37936432 19.86068176 17.45439209 19.85655212 18.56199646 C19.85708084 19.73657913 19.85760956 20.9111618 19.8581543 22.12133789 C19.85294266 23.98302612 19.85294266 23.98302612 19.84762573 25.88232422 C19.84026918 28.58055705 19.83459557 31.27874065 19.83133507 33.97697639 C19.82540903 38.25238684 19.80885153 42.52771472 19.78999329 46.80308533 C19.78365595 48.26918502 19.77733032 49.73528476 19.77101612 51.20138454 C19.76785031 51.93562204 19.7646845 52.66985954 19.76142275 53.42634666 C19.71942778 63.3759318 19.68640187 73.32547865 19.67407227 83.27514648 C19.66566461 89.99101888 19.64307255 96.70668666 19.6047166 103.42245668 C19.58504264 106.97137234 19.57252216 110.51998275 19.57755089 114.06895638 C19.58310499 118.03713673 19.55767186 122.00480604 19.5300293 125.97290039 C19.53993141 127.71351997 19.53993141 127.71351997 19.55003357 129.48930359 C19.41854749 141.03490728 16.42934336 149.52888962 8.35546875 157.83984375 C-1.03952277 166.45581442 -11.6237929 168.81699923 -24.1640625 168.3359375 C-34.39181341 167.44022815 -41.18884881 162.51961035 -48 155 C-51.73481853 149.86943743 -52.83695956 145.27719673 -52 139 C-50.375 136.5 -50.375 136.5 -48 135 C-44.36367425 134.39394571 -42.71685231 134.52838664 -39.625 136.5625 C-37.37659481 139.93510779 -37.43216055 142.02512383 -38 146 C-39.625 148.4375 -39.625 148.4375 -42 150 C-45.25 150.25 -45.25 150.25 -48 150 C-43.53751141 156.81205644 -38.82650673 161.39116442 -31 164 C-28.08951219 164.17560807 -25.22450631 164.27718869 -22.3125 164.3125 C-21.53455078 164.34150391 -20.75660156 164.37050781 -19.95507812 164.40039062 C-13.08683028 164.4748587 -8.16350553 162.55470141 -2.828125 158.24609375 C5.1544993 149.09769016 6.59735361 139.45596112 6.50170898 127.62158203 C6.50711197 126.33078232 6.51251495 125.0399826 6.51808167 123.71006775 C6.53191895 120.20412181 6.52095419 116.698673 6.50437045 113.19275522 C6.49042087 109.51024487 6.49699055 105.82776047 6.50050354 102.14523315 C6.50319586 95.97043934 6.48980781 89.79584104 6.46655273 83.62109375 C6.43987821 76.48915884 6.43822189 69.35754908 6.4499411 62.22558129 C6.46072449 55.34576846 6.45453201 48.46607289 6.44038582 41.58626938 C6.43463796 38.66531466 6.43469902 35.74444609 6.43945122 32.82349014 C6.44511578 28.74949714 6.42589197 24.67598911 6.40405273 20.60205078 C6.41080521 18.78946526 6.41080521 18.78946526 6.41769409 16.94026184 C6.40778946 15.83020279 6.39788483 14.72014374 6.38768005 13.57644653 C6.38525016 12.61455477 6.38282026 11.652663 6.38031673 10.661623 C5.70292726 5.92095494 3.32509187 3.32509187 0 0 Z " fill="#060606" transform="translate(264,207)"/>
<path d="M0 0 C3.24535319 3.78192163 4.99060596 8.13214771 6.96484375 12.65234375 C7.35069641 13.52441467 7.73654907 14.3964856 8.13409424 15.29498291 C9.40660435 18.17376901 10.67199176 21.05562991 11.9375 23.9375 C12.82082945 25.93879681 13.70470759 27.93985153 14.58911133 29.94067383 C16.44240924 34.13463801 18.29328537 38.32965896 20.14257812 42.52539062 C24.36019906 52.08894549 28.60766341 61.63923901 32.85476685 71.18972778 C34.17549768 74.16050268 35.49500799 77.13181697 36.81420898 80.10327148 C37.61961264 81.91651113 38.42503172 83.72974393 39.23046875 85.54296875 C39.5993219 86.3741925 39.96817505 87.20541626 40.34820557 88.06182861 C42.11411426 92.05893415 42.11411426 92.05893415 44 96 C44.08667255 98.62627133 44.11560135 101.22562483 44.09765625 103.8515625 C44.0962413 104.62559418 44.09482635 105.39962585 44.09336853 106.19711304 C44.08776403 108.67311442 44.07521083 111.14902588 44.0625 113.625 C44.05748558 115.30208203 44.05292257 116.97916547 44.04882812 118.65625 C44.03779315 122.77086806 44.02052554 126.88541878 44 131 C41.69 131 39.38 131 37 131 C37.845625 130.319375 38.69125 129.63875 39.5625 128.9375 C40.366875 127.968125 41.17125 126.99875 42 126 C40.83085841 115.57229393 40.83085841 115.57229393 30 94 C7.23 93.67 -15.54 93.34 -39 93 C-39.33 94.65 -39.66 96.3 -40 98 C-40.71106434 99.70689101 -41.4766644 101.39172919 -42.28515625 103.0546875 C-42.95708008 104.47201172 -42.95708008 104.47201172 -43.64257812 105.91796875 C-44.58688084 107.88450838 -45.5373808 109.84808454 -46.49414062 111.80859375 C-49.98902902 119.07148173 -49.98902902 119.07148173 -50 127 C-48.68 128.32 -47.36 129.64 -46 131 C-51.94 131 -57.88 131 -64 131 C-62.68 130.01 -61.36 129.02 -60 128 C-51.20299263 120.82349398 -47.58715451 107.97325491 -43.25 97.8125 C-42.1062484 95.15014414 -40.95944318 92.48910724 -39.8125 89.828125 C-39.35898163 88.77486778 -39.35898163 88.77486778 -38.89630127 87.70033264 C-35.0599427 78.80103528 -31.15249826 69.93293683 -27.25 61.0625 C-22.51508015 50.29902958 -17.78975041 39.53171765 -13.10546875 28.74609375 C-12.71060272 27.83747086 -12.31573669 26.92884796 -11.90890503 25.99269104 C-10.00891586 21.62017496 -8.11138161 17.24662114 -6.21777344 12.87133789 C-5.53981073 11.31001639 -4.86175607 9.74873481 -4.18359375 8.1875 C-3.87407272 7.46980942 -3.5645517 6.75211884 -3.24565125 6.01268005 C-1.11352704 1.11352704 -1.11352704 1.11352704 0 0 Z M-5 18 C-10.05303039 28.73261217 -14.97259951 39.52186278 -19.83398438 50.3425293 C-20.99728769 52.93146374 -22.16258928 55.51949182 -23.328125 58.10742188 C-25.56048 63.06787653 -27.78282887 68.03274228 -30 73 C-30.35433105 73.79222961 -30.70866211 74.58445923 -31.07373047 75.4006958 C-32.07421534 77.64158367 -33.0693168 79.88477433 -34.0625 82.12890625 C-34.36172363 82.79800522 -34.66094727 83.46710419 -34.96923828 84.15647888 C-36.49974921 87.45278385 -36.49974921 87.45278385 -37 91 C-15.22 91 6.56 91 29 91 C25.95977419 83.70345807 22.91153811 76.45970975 19.63671875 69.2734375 C19.24104202 68.40087311 18.8453653 67.52830872 18.43769836 66.62930298 C17.18935199 63.87708411 15.93858393 61.12597538 14.6875 58.375 C13.45210477 55.65533196 12.21726135 52.9354156 10.98318481 50.21514893 C10.17348036 48.43082532 9.36284233 46.64692505 8.55123901 44.86346436 C6.56254944 40.48533865 4.59879644 36.09865788 2.68212891 31.68847656 C2.31698685 30.85184479 1.95184479 30.01521301 1.57563782 29.15322876 C0.88718974 27.57134889 0.20412761 25.98711075 -0.47273254 24.40023804 C-1.92867226 20.50897986 -1.92867226 20.50897986 -5 18 Z " fill="#060606" transform="translate(206,162)"/>
<path d="M0 0 C2.375 1.5625 2.375 1.5625 4 4 C4.56783945 7.97487617 4.62340519 10.06489221 2.375 13.4375 C-0.602598 15.39644605 -2.50355037 15.31785906 -6 15 C-1.53751141 21.81205644 3.17349327 26.39116442 11 29 C13.39254576 29.22560676 15.78928123 29.40848595 18.1875 29.5625 C20.09595703 29.68818359 20.09595703 29.68818359 22.04296875 29.81640625 C23.01878906 29.87699219 23.99460938 29.93757813 25 30 C25 30.33 25 30.66 25 31 C23.9275 31.144375 22.855 31.28875 21.75 31.4375 C18.26547332 31.85826559 18.26547332 31.85826559 16.0546875 32.62109375 C11.69799886 33.42451352 7.74485879 31.04362294 4 29 C-2.85145696 24.00822421 -8.88404098 18.49393175 -10.3671875 9.86328125 C-10.58042464 6.47030202 -10.23130705 4.355857 -8.375 1.5 C-5.27859404 -0.45562482 -3.60146865 -0.60024477 0 0 Z " fill="#151515" transform="translate(222,342)"/>
<path d="M0 0 C0.66 0.33 1.32 0.66 2 1 C1.40963871 6.33112542 -0.39095631 10.57855037 -2.61328125 15.38671875 C-2.97940018 16.1940596 -3.3455191 17.00140045 -3.72273254 17.83320618 C-4.91291069 20.45427529 -6.11270212 23.07082239 -7.3125 25.6875 C-8.13148639 27.48727103 -8.94967906 29.28740345 -9.76708984 31.08789062 C-10.99841689 33.79972008 -12.23027514 36.51129371 -13.46484375 39.22164917 C-17.06550485 47.12700469 -20.60711208 55.05752945 -24.125 63 C-24.62684814 64.13139404 -25.12869629 65.26278809 -25.64575195 66.4284668 C-26.76476072 68.95190276 -27.88292113 71.47570928 -29 74 C-29.66 73.67 -30.32 73.34 -31 73 C-29.05143163 66.81200434 -26.76132393 60.8842215 -24.12109375 54.9609375 C-23.75233627 54.12466324 -23.3835788 53.28838898 -23.00364685 52.42677307 C-21.81858057 49.74121919 -20.62806031 47.05812211 -19.4375 44.375 C-18.62275967 42.53087907 -17.80847088 40.68655858 -16.99462891 38.84204102 C-15.78525432 36.10127358 -14.57559733 33.36063534 -13.36437988 30.62068176 C-10.1744983 23.40446722 -7.01398955 16.17601823 -3.875 8.9375 C-3.46822021 8.00019043 -3.06144043 7.06288086 -2.64233398 6.09716797 C-1.76084261 4.06508795 -0.88027954 2.03260527 0 0 Z " fill="#1D1D1D" transform="translate(198,179)"/>
<path d="M0 0 C1.13818359 1.6628418 1.13818359 1.6628418 2 4 C1.21728516 6.54614258 1.21728516 6.54614258 -0.2109375 9.39453125 C-0.71367187 10.43287109 -1.21640625 11.47121094 -1.734375 12.54101562 C-2.27578125 13.62060547 -2.8171875 14.70019531 -3.375 15.8125 C-8.45668849 24.96009895 -8.45668849 24.96009895 -9 35 C-7.68 36.32 -6.36 37.64 -5 39 C-10.94 39 -16.88 39 -23 39 C-21.68 38.01 -20.36 37.02 -19 36 C-8.89129517 27.75342501 -4.82689169 11.73351364 0 0 Z " fill="#222222" transform="translate(165,254)"/>
<path d="M0 0 C0.8971875 1.1446875 0.8971875 1.1446875 1.8125 2.3125 C4.03799512 5.14002399 4.03799512 5.14002399 7 8 C1.06 8 -4.88 8 -11 8 C-7.36808125 5.27606094 -3.69851417 2.63163508 0 0 Z " fill="#181818" transform="translate(153,285)"/>
<path d="M0 0 C0.99 0 1.98 0 3 0 C1.58192622 4.47238653 -0.11304374 8.71146306 -2 13 C-3.1171875 11.296875 -3.1171875 11.296875 -4 9 C-3.3203125 6.640625 -3.3203125 6.640625 -2.125 4.25 C-1.73570312 3.45078125 -1.34640625 2.6515625 -0.9453125 1.828125 C-0.63335937 1.22484375 -0.32140625 0.6215625 0 0 Z " fill="#242424" transform="translate(181,218)"/>
<path d="M0 0 C0.66 0.33 1.32 0.66 2 1 C2 2.32 2 3.64 2 5 C-0.31 5 -2.62 5 -5 5 C-3.35 3.35 -1.7 1.7 0 0 Z " fill="#2C2C2C" transform="translate(248,288)"/>
<path d="M0 0 C0.66 0 1.32 0 2 0 C1.25 5.75 1.25 5.75 -1 8 C-2.2077558 4.37673261 -1.54311128 3.35853631 0 0 Z " fill="#191919" transform="translate(176,229)"/>
<path d="M0 0 C0.99 0 1.98 0 3 0 C2.34 1.98 1.68 3.96 1 6 C0.01 6 -0.98 6 -2 6 C-1.34 4.02 -0.68 2.04 0 0 Z " fill="#222222" transform="translate(189,200)"/>
</svg>
